<svg xmlns="http://www.w3.org/2000/svg" viewBox="0 0 261.23 194.45"><defs><style>.cls-1,.cls-2,.cls-3{fill:none;}.cls-1,.cls-3{stroke:#fff;}.cls-1,.cls-2{stroke-miterlimit:10;}.cls-1{stroke-width:13.4px;}.cls-2{stroke:#c01449;stroke-width:9.5px;}.cls-3{stroke-linecap:round;stroke-linejoin:round;stroke-dasharray:7.66;}</style></defs><title>350m_track</title><g id="Layer_2" data-name="Layer 2"><g id="Layer_1-2" data-name="Layer 1"><path class="cls-1" d="M48.48,186.57c-10.3,3.6-21.87-1.26-26-11.37a20.3,20.3,0,0,1,11.71-26.65s11.81-4.62,21.69-7.91c22.55-7.49,26.64-14.71,50.35-23.34,30.16-11,42-10.54,62.55-17.8a22.83,22.83,0,0,0,14.34-28.3c-3.9-12.17-15.91-17.4-28.91-14.5-12.82,2.85-35.65,11.49-62.7,22.58S33.11,107.2,33.11,107.2A20.17,20.17,0,0,1,18.17,69.82C63.79,47,129.58,21.44,182.22,8.54c23.66-5.79,34.54,2.31,39.79,21.15,2.32,8.32,5.5,18.18,6.55,22.76,3.1,13.53,21.28,6.65,25.27,24.83,3.17,14.45-4.66,22.39-18.18,24.61-10.45,1.71-21.51,7.52-28.82,29.71-6.43,19.51-17.7,33.77-41.68,41.68-38.35,12.63-60.52-8.65-81.14-.45S59.2,182.82,48.48,186.57Z"/><path class="cls-2" d="M48.48,186.57c-10.3,3.6-21.87-1.26-26-11.37a20.3,20.3,0,0,1,11.71-26.65s11.81-4.62,21.69-7.91c22.55-7.49,26.64-14.71,50.35-23.34,30.16-11,42-10.54,62.55-17.8a22.83,22.83,0,0,0,14.34-28.3c-3.9-12.17-15.91-17.4-28.91-14.5-12.82,2.85-35.65,11.49-62.7,22.58S33.11,107.2,33.11,107.2A20.17,20.17,0,0,1,18.17,69.82C63.79,47,129.58,21.44,182.22,8.54c23.66-5.79,34.54,2.31,39.79,21.15,2.32,8.32,5.5,18.18,6.55,22.76,3.1,13.53,21.28,6.65,25.27,24.83,3.17,14.45-4.66,22.39-18.18,24.61-10.45,1.71-21.51,7.52-28.82,29.71-6.43,19.51-17.7,33.77-41.68,41.68-38.35,12.63-60.52-8.65-81.14-.45S59.2,182.82,48.48,186.57Z"/><path class="cls-3" d="M48.48,186.57c-10.3,3.6-21.87-1.26-26-11.37a20.3,20.3,0,0,1,11.71-26.65s11.81-4.62,21.69-7.91c22.55-7.49,26.64-14.71,50.35-23.34,30.16-11,42-10.54,62.55-17.8a22.83,22.83,0,0,0,14.34-28.3c-3.9-12.17-15.91-17.4-28.91-14.5-12.82,2.85-35.65,11.49-62.7,22.58S33.11,107.2,33.11,107.2A20.17,20.17,0,0,1,18.17,69.82C63.79,47,129.58,21.44,182.22,8.54c23.66-5.79,34.54,2.31,39.79,21.15,2.32,8.32,5.5,18.18,6.55,22.76,3.1,13.53,21.28,6.65,25.27,24.83,3.17,14.45-4.66,22.39-18.18,24.61-10.45,1.71-21.51,7.52-28.82,29.71-6.43,19.51-17.7,33.77-41.68,41.68-38.35,12.63-60.52-8.65-81.14-.45S59.2,182.82,48.48,186.57Z"/></g></g></svg>