<svg xmlns="http://www.w3.org/2000/svg" viewBox="0 0 6 9.97"><defs><style>.cls-1{fill:#f0efef;}.cls-2{fill:#b62025;}.cls-3{fill:#a21d21;}.cls-4{fill:#dfb525;}</style></defs><title>go_kart</title><g id="Layer_2" data-name="Layer 2"><g id="Layer_1-2" data-name="Layer 1"><g id="ACcDdC.tif"><polygon class="cls-1" points="5.75 0.49 3 0.49 0.26 0.49 0 1.71 0.5 1.88 1.05 1.34 3 1.34 3 1.34 4.95 1.34 5.5 1.88 6 1.71 5.75 0.49"/><polygon class="cls-2" points="5.53 3.94 4.78 3.94 4.5 3.77 3.56 1.76 3.32 0 3 0 2.68 0 2.44 1.76 1.5 3.77 1.22 3.94 0.47 3.94 0 4.63 0 5.46 0.24 6.24 0.58 6.62 1.09 6.94 1.82 7.11 3 7.11 4.18 7.11 4.91 6.94 5.42 6.62 5.76 6.24 6 5.46 6 4.63 5.53 3.94"/><rect x="4.36" y="1.88" width="1.15" height="1.68"/><rect x="0.42" y="1.88" width="1.15" height="1.68"/><rect x="4.48" y="7.11" width="1.15" height="1.68"/><rect x="0.31" y="7.11" width="1.15" height="1.68"/><rect class="cls-3" x="0.89" y="7.48" width="4.31" height="0.84"/><polygon points="4.13 8.79 3.71 7.53 2.45 7.53 2.01 8.79 4.13 8.79"/><rect class="cls-1" x="1.56" y="8.79" width="3.02" height="1.18"/><ellipse class="cls-4" cx="3.04" cy="5.47" rx="1.07" ry="1.2"/><path d="M3,4.27A1.1,1.1,0,0,0,2,5.4s.32-1,1.06-1,1.07,1,1.07,1A1.1,1.1,0,0,0,3,4.27Z"/></g></g></g></svg>