<svg xmlns="http://www.w3.org/2000/svg" width="86.791" height="25.785" viewBox="0 0 86.791 25.785">
  <g id="Artwork_11" data-name="Artwork 11" transform="translate(92.28 27.416)">
    <g id="Group_14" data-name="Group 14" transform="translate(-92.28 -27.416)">
      <g id="Group_12" data-name="Group 12" transform="translate(41.174)">
        <path id="Path_184" data-name="Path 184" d="M378.729,0V10.266L371.772,0H367.36V17.127h2.231l2.181-2.186V6.931l7.019,10.2h4.35V0Z" transform="translate(-351.118)"/>
        <path id="Path_185" data-name="Path 185" d="M278.726,0H274.08l-6.16,8.266L267.937,0h-2.073l-2.376,2.379V17.127H267.9l.018-8.646,6.161,8.646h4.646l-6.239-8.756Z" transform="translate(-263.482)"/>
        <path id="Path_186" data-name="Path 186" d="M490.143,3.6V0H478.21V17.127h11.933v-3.6h-7.521V10.338h6.545V6.7H484.21l-1.587,1.587V3.6Z" transform="translate(-444.643)"/>
        <path id="Path_187" data-name="Path 187" d="M265.765,133.316l-1.221-1.878h-.3v1.878h-.8v-4.2h.8v2.019l1.532-2.019h.892l-1.5,1.9,1.52,2.294Z" transform="translate(-263.441 -108.939)"/>
        <path id="Path_188" data-name="Path 188" d="M286.65,139.579a1.49,1.49,0,0,1-.047-.153,1.532,1.532,0,0,1-.827.217.924.924,0,0,1-.98-.957c0-.7.7-.945,1.684-.986v-.018c-.006-.417-.129-.54-.452-.54a2.362,2.362,0,0,0-.645.117l-.17-.539a3.012,3.012,0,0,1,.98-.206.919.919,0,0,1,1.038,1.045v1.367a5.354,5.354,0,0,0,.047.622Zm-1.086-.91a.4.4,0,0,0,.458.422.727.727,0,0,0,.458-.17v-.71c-.5.018-.915.1-.915.458" transform="translate(-281.458 -115.179)"/>
        <path id="Path_189" data-name="Path 189" d="M305.816,137.221a1.191,1.191,0,0,0-.781.246v2.089h-.763v-2.934h.6l.059.258a1.149,1.149,0,0,1,.944-.364l.077.716a.79.79,0,0,0-.135-.012" transform="translate(-297.89 -115.179)"/>
        <path id="Path_190" data-name="Path 190" d="M316.971,135.651a.984.984,0,0,1-1.11-1.063v-1.414h-.493v-.417l.493-.076v-.869l.6-.029.123.857.863-.012v.552l-.816-.006v1.314c0,.4.123.528.44.528a2.166,2.166,0,0,0,.4-.053l.129.581a2.157,2.157,0,0,1-.634.106" transform="translate(-307.253 -111.187)"/>
        <path id="Path_191" data-name="Path 191" d="M331.135,128.707h.763v.786h-.763Zm0,1.326h.763v2.934h-.763Z" transform="translate(-320.555 -108.591)"/>
        <path id="Path_192" data-name="Path 192" d="M341.563,139.556v-1.49c0-.516-.082-.839-.593-.839a3.565,3.565,0,0,0-.552.047v2.282h-.762V136.7a6.135,6.135,0,0,1,1.408-.182,1.121,1.121,0,0,1,1.261,1.262v1.778Z" transform="translate(-327.744 -115.179)"/>
        <path id="Path_193" data-name="Path 193" d="M361.575,134.359a1.453,1.453,0,0,1,.135.657,1.176,1.176,0,0,1-.328.921c-.152.147-.328.234-.328.41,0,.276.7.429.7.992s-.528.869-1.238.869a2.558,2.558,0,0,1-.581-.065l-.205-.657a2.388,2.388,0,0,0,.616.1c.452,0,.651-.124.651-.335,0-.293-.681-.44-.681-.839a.293.293,0,0,1,.041-.147,1.111,1.111,0,0,1-1.1-1.25,1.126,1.126,0,0,1,1.226-1.256,1.165,1.165,0,0,1,.827.264.708.708,0,0,0,.206-.522v-.252h.656v.223a.886.886,0,0,1-.593.886m-1.1.006c-.323,0-.5.241-.5.652s.176.656.5.656.5-.241.5-.656-.176-.652-.5-.652" transform="translate(-344.277 -112.424)"/>
        <path id="Path_194" data-name="Path 194" d="M391.382,133.322l-1.866-2.852.012,2.846h-.763v-4.2h.763L391.406,132l-.012-2.881h.763v4.2Z" transform="translate(-369.178 -108.94)"/>
        <path id="Path_195" data-name="Path 195" d="M415.3,139.643c-.886,0-1.391-.493-1.391-1.567s.5-1.561,1.391-1.561,1.391.493,1.391,1.561-.51,1.567-1.391,1.567m0-2.471c-.4,0-.616.241-.616.9s.211.91.616.91.616-.247.616-.91-.217-.9-.616-.9" transform="translate(-390.391 -115.179)"/>
        <path id="Path_196" data-name="Path 196" d="M435.907,137.221a1.191,1.191,0,0,0-.781.246v2.089h-.763v-2.934h.6l.059.258a1.148,1.148,0,0,1,.944-.364l.077.716a.79.79,0,0,0-.135-.012" transform="translate(-407.649 -115.179)"/>
        <path id="Path_197" data-name="Path 197" d="M447.06,135.651a.984.984,0,0,1-1.11-1.063v-1.414h-.493v-.417l.493-.076v-.869l.6-.029.123.857.863-.012v.552l-.816-.006v1.314c0,.4.123.528.44.528a2.166,2.166,0,0,0,.4-.053l.129.581a2.156,2.156,0,0,1-.634.106" transform="translate(-417.01 -111.187)"/>
        <path id="Path_198" data-name="Path 198" d="M463.134,132.971v-1.49c0-.516-.082-.839-.593-.839a2.936,2.936,0,0,0-.552.065v2.265h-.763V128.83l.763-.118V130a3.908,3.908,0,0,1,.658-.065,1.121,1.121,0,0,1,1.25,1.268v1.772Z" transform="translate(-430.314 -108.595)"/>
        <path id="Path_199" data-name="Path 199" d="M493.491,133.316h-2.523v-4.2h2.347v.722h-1.543v.951h1.221v.7h-1.221v1.1h1.778Z" transform="translate(-455.407 -108.939)"/>
        <path id="Path_200" data-name="Path 200" d="M510.536,139.579a1.467,1.467,0,0,1-.047-.153,1.532,1.532,0,0,1-.827.217.924.924,0,0,1-.98-.957c0-.7.7-.945,1.684-.986v-.018c-.006-.417-.129-.54-.452-.54a2.363,2.363,0,0,0-.646.117l-.17-.539a3.014,3.014,0,0,1,.98-.206.919.919,0,0,1,1.039,1.045v1.367a5.374,5.374,0,0,0,.047.622Zm-1.086-.909a.4.4,0,0,0,.458.422.728.728,0,0,0,.458-.17v-.71c-.5.018-.915.1-.915.458" transform="translate(-470.351 -115.179)"/>
        <path id="Path_201" data-name="Path 201" d="M527.821,139.643a2.174,2.174,0,0,1-.9-.17l.082-.593a1.653,1.653,0,0,0,.769.176c.3,0,.528-.112.528-.346,0-.082-.035-.158-.206-.252a6.079,6.079,0,0,1-.686-.334.805.805,0,0,1-.358-.7.936.936,0,0,1,1-.9,1.731,1.731,0,0,1,.728.147l-.07.54a1.454,1.454,0,0,0-.534-.094c-.246,0-.381.111-.381.275,0,.123.105.223.394.346a3.136,3.136,0,0,1,.6.3.7.7,0,0,1,.311.61c0,.774-.75,1-1.279,1" transform="translate(-485.742 -115.178)"/>
        <path id="Path_202" data-name="Path 202" d="M542.6,135.651a.984.984,0,0,1-1.11-1.063v-1.414H541v-.417l.493-.076v-.869l.6-.029.123.857.863-.012v.552l-.816-.006v1.314c0,.4.123.528.44.528a2.163,2.163,0,0,0,.4-.053l.129.581a2.161,2.161,0,0,1-.634.106" transform="translate(-497.619 -111.187)"/>
      </g>
      <g id="Group_13" data-name="Group 13">
        <path id="Path_203" data-name="Path 203" d="M226.765,0V.223h.631V1.871h.256V.223h.63V0Z" transform="translate(-191.323)"/>
        <path id="Path_204" data-name="Path 204" d="M237.922,0h.363l.538,1.582L239.356,0h.36V1.871h-.242V.767c0-.038,0-.1,0-.19s0-.183,0-.284l-.534,1.579H238.7L238.156.293V.35q0,.069,0,.209t0,.207v1.1h-.242Z" transform="translate(-200.736)"/>
        <path id="Path_205" data-name="Path 205" d="M27.834,0H13.549L26.505,12.956l-6.781,6.781L0,0V25.779l5.7-5.7,5.707,5.707H27.966l7.426-7.426V7.559Z"/>
      </g>
    </g>
  </g>
</svg>
